<?xml version="1.0" encoding="UTF-8"?>
<svg version="1.1" xmlns="http://www.w3.org/2000/svg" width="265" height="189">
<path d="M0 0 C11.49810105 10.43187027 22.49412105 22.19514035 24.25366211 38.27539062 C24.58588984 47.32859642 21.57801903 54.69137945 15.42944336 61.38476562 C-1.61235412 77.73617045 -27.72940937 80.11566354 -50.15258789 80.01757812 C-50.82223572 80.01575531 -51.49188354 80.0139325 -52.18182373 80.01205444 C-64.01319564 79.95824839 -75.42911712 79.05296541 -87.02758789 76.70507812 C-88.28128174 76.45564453 -88.28128174 76.45564453 -89.56030273 76.20117188 C-117.23528473 70.52856217 -146.32490397 60.97721971 -169.02758789 43.70507812 C-170.19161133 42.85042969 -170.19161133 42.85042969 -171.37915039 41.97851562 C-185.16295131 31.60513968 -199.38830983 18.99295393 -204.02758789 1.70507812 C-205.00538981 -7.55830845 -204.79153213 -15.70115407 -199.02758789 -23.29492188 C-184.63368401 -39.75675902 -163.41118194 -43.56691912 -142.67602539 -44.98242188 C-93.14899166 -47.90652719 -37.67287783 -33.13059531 0 0 Z " fill="#2F7CEF" transform="translate(237.027587890625,52.294921875)"/>
<path d="M0 0 C3.33431951 1.25452899 5.4169094 4.06329979 7.79418945 6.62060547 C18.91694417 18.11258684 31.84590559 26.41226085 45.98168945 33.74560547 C46.93470947 34.24954834 46.93470947 34.24954834 47.90698242 34.76367188 C76.36208171 49.6479893 109.03937324 57.25648447 140.98168945 58.74560547 C142.73352539 58.83455078 142.73352539 58.83455078 144.52075195 58.92529297 C165.89387034 59.42234223 187.74879537 56.36205251 206.98168945 46.74560547 C206.60775377 58.3376116 200.27302086 66.96000535 191.98168945 74.74560547 C157.66514522 103.1287085 106.87841224 108.61671412 63.98168945 104.74560547 C32.43751797 101.56251712 -4.79170956 93.05718781 -26.4284668 67.94873047 C-33.15568833 59.1093323 -36.76824427 50.49937725 -35.8034668 39.23779297 C-33.31782818 24.13457926 -23.88560946 14.36301112 -11.8581543 5.70263672 C-3.0290533 -0.38179189 -3.0290533 -0.38179189 0 0 Z " fill="#0B142F" transform="translate(39.018310546875,79.25439453125)"/>
<path d="M0 0 C0.66 0.33 1.32 0.66 2 1 C-2.95 5.95 -7.9 10.9 -13 16 C-13 11.08924079 -9.30469813 8.39044878 -6 5 C-4.05397986 3.23549584 -2.07285289 1.6178364 0 0 Z " fill="#1F2434" transform="translate(24,87)"/>
</svg>
